{"title":"Lana Del Rey - Music To Watch Boys To (2015.Indie)","uid":12518629,"size":160195191,"categoryP":"video","categoryS":"music_videos","magnet":"?xt=urn:btih:0535cbddbc8ccded3cd7248167970aed5e87fced&amp;dn=Lana+Del+Rey+-+Music+To+Watch+Boys+To+%282015.Indie%29&amp;tr=udp%3A%2F%2Ftracker.leechers-paradise.org%3A6969&amp;tr=udp%3A%2F%2Fzer0day.ch%3A1337&amp;tr=udp%3A%2F%2Fopen.demonii.com%3A1337&amp;tr=udp%3A%2F%2Ftracker.coppersurfer.tk%3A6969&amp;tr=udp%3A%2F%2Fexodus.desync.com%3A6969","seeders":0,"leechers":1,"uploader":"MeRaDil","files":1,"time":1443810254,"description":"LANA DEL REY - MUSIC TO WATCH BOYS TO\r\n\r\n \nhttp://gifyu.com/images/Lana-01.png\r\n \nhttp://gifyu.com/images/Lana-02.png\r\n \nhttp://gifyu.com/images/Lana-03.png\r\n\r\n\r\nMEDIA INFO\r\nGeneral\r\nLana Del Rey - Music To Watch Boys To\r\nFormat                                   : MPEG-4\r\nFormat profile                           : Base Media\r\nCodec ID                                 : isom\r\nFile size                                : 153 MiB\r\nDuration                                 : 4mn 54s\r\nOverall bit rate                         : 4 350 Kbps\r\nMusicVid name                            : Music To Watch Boys To\r\nAlbum                                    : Honeymoon\r\nPerformer                                : Lana Del Rey\r\nGenre                                    : Indie Pop\r\nContentType                              : Music Video\r\nRecorded date                            : 2015\r\nMake                                     : MeRaDil\r\nRelease time                             : USA . september 30th . 2015\r\n \nhttps://thepiratebay.vg/user/MeRaDil\r\n\r\nVideo\r\nID                                       : 1\r\nFormat                                   : AVC\r\nFormat/Info                              : Advanced Video Codec\r\nFormat profile                           :   \r\nFormat settings, CABAC                   : Yes\r\nFormat settings, ReFrames                : 2 frames\r\nCodec ID                                 : avc1\r\nCodec ID/Info                            : Advanced Video Coding\r\nDuration                                 : 4mn 54s\r\nBit rate                                 : 4 087 Kbps\r\nWidth                                    : 1 920 pixels\r\nHeight                                   : 1 080 pixels\r\nDisplay aspect ratio                     : 16:9\r\nFrame rate mode                          : Variable\r\nFrame rate                               : 23.976 fps\r\nMinimum frame rate                       : 23.974 fps\r\nMaximum frame rate                       : 23.981 fps\r\nColor space                              : YUV\r\nChroma subsampling                       : 4:2:0\r\nBit depth                                : 8 bits\r\nScan type                                : Progressive\r\nBits/(Pixel*Frame)                       : 0.082\r\nStream size                              : 144 MiB (94%)\r\n\r\nAudio\r\nID                                       : 2\r\nFormat                                   : AAC\r\nFormat/Info                              : Advanced Audio Codec\r\nFormat profile                           : LC\r\nCodec ID                                 : 40\r\nDuration                                 : 4mn 54s\r\nBit rate mode                            : Constant\r\nBit rate                                 : 256 Kbps\r\nChannel(s)                               : 2 channels\r\nChannel positions                        : Front: L R\r\nSampling rate                            : 44.1 KHz\r\nCompression mode                         : Lossy\r\nStream size                              : 8.99 MiB (6%)\r\n\r\nLana Del Rey * Honeymoon * Indie Pop/Dream Pop * Promo","torrent":{"xt":"urn:btih:0535cbddbc8ccded3cd7248167970aed5e87fced","amp;dn":"Lana+Del+Rey+-+Music+To+Watch+Boys+To+%282015.Indie%29","amp;tr":["udp%3A%2F%2Ftracker.leechers-paradise.org%3A6969","udp%3A%2F%2Fzer0day.ch%3A1337","udp%3A%2F%2Fopen.demonii.com%3A1337","udp%3A%2F%2Ftracker.coppersurfer.tk%3A6969","udp%3A%2F%2Fexodus.desync.com%3A6969"],"infoHash":"0535cbddbc8ccded3cd7248167970aed5e87fced","infoHashBuffer":{"type":"Buffer","data":[5,53,203,221,188,140,205,237,60,215,36,129,103,151,10,237,94,135,252,237]},"announce":[],"urlList":[]}}